<?xml version="1.0" encoding="UTF-8"?>
<svg id="Layer_104" data-name="Layer 104" xmlns="http://www.w3.org/2000/svg" xmlns:xlink="http://www.w3.org/1999/xlink" viewBox="0 0 427.23 298.26">
  <defs>
    <style>
      .cls-1 {
        clip-path: url(#clippath);
      }

      .cls-2, .cls-3, .cls-4, .cls-5, .cls-6, .cls-7, .cls-8, .cls-9, .cls-10, .cls-11, .cls-12, .cls-13 {
        fill: none;
      }

      .cls-2, .cls-14, .cls-15, .cls-4, .cls-16, .cls-5, .cls-17, .cls-6, .cls-7, .cls-8, .cls-9, .cls-10, .cls-11, .cls-12, .cls-13 {
        stroke: #570060;
      }

      .cls-2, .cls-14, .cls-17 {
        stroke-miterlimit: 10;
      }

      .cls-2, .cls-11 {
        stroke-width: .21px;
      }

      .cls-3, .cls-18 {
        stroke-width: 0px;
      }

      .cls-14 {
        stroke-width: .04px;
      }

      .cls-14, .cls-15, .cls-16, .cls-17 {
        fill: #ffebde;
      }

      .cls-15, .cls-4, .cls-16, .cls-5, .cls-6, .cls-7, .cls-8, .cls-9, .cls-10, .cls-11, .cls-12, .cls-13 {
        stroke-linecap: round;
        stroke-linejoin: round;
      }

      .cls-15, .cls-5 {
        stroke-width: 1px;
      }

      .cls-4 {
        stroke-width: 1.99px;
      }

      .cls-16 {
        stroke-width: .8px;
      }

      .cls-17 {
        stroke-width: .05px;
      }

      .cls-6 {
        stroke-width: .25px;
      }

      .cls-7 {
        stroke-width: .22px;
      }

      .cls-8 {
        stroke-width: .21px;
      }

      .cls-9 {
        stroke-width: .84px;
      }

      .cls-10 {
        stroke-width: .21px;
      }

      .cls-18 {
        fill: #570060;
      }

      .cls-12 {
        stroke-width: .21px;
      }

      .cls-13 {
        stroke-width: .84px;
      }
    </style>
    <clipPath id="clippath">
      <path class="cls-3" d="M394.17,101.44c-4.35,9.2-8.26,16.57-11.16,26.26-1.67,5.59-2.88,11.29-3.61,17.05-.48,3.83-.76,7.7-.45,11.55.42,5.23,1.9,10.32,3.38,15.38,3.2,10.97,7.43,21.61,12.74,31.82,3.52,6.77,4.41,7.88,11.49,8.23,2.86-2.92,5.27-6.04,6.8-9.74,1.44-3.49,2.21-7.19,2.92-10.87,5.94-30.93,7.88-63.04.1-93.61-.84-3.31-2.44-7.19-6.02-7.8-2.15-.37-2.82.68-4.68,1.76-3.71,2.15-10.32,7.46-11.5,9.94Z"/>
    </clipPath>
  </defs>
  <path class="cls-9" d="M253.6,293.12c-2.52-.5-4.83-1.97-6.35-4.04,4.09.81,7.96,2.69,11.13,5.41"/>
  <path class="cls-9" d="M279.34,296.88c-3.86-1.28-7.88-2.66-10.73-5.56,3.34.78,6.63,1.79,9.83,3.02"/>
  <g>
    <path class="cls-15" d="M216.66,279.41c14.1,3.88,25.8,11.26,40.05,14.57,8.16,1.9-4.98-1.55,3.38-2.21.62-.05,23.44,4.75,23.78,4.23s-.75-4.57-1.27-4.23c42.77,6.08,73.63-11.6,94.54-40.33,5.78-7.94,12.43-21.88,10.69-31.49-.78-4.32-4.49-6.31-6.73-10.11-6.24-10.57-8.9-18.61-18.03-26.91,9.57,6.08,12.12,6.38,19.21,12.87,7.09,6.49,15.29,14.64,24.69,16.96,3.6-.79,9.2-7.23,6.75-9.94,1.98,1,2.93-6.89,3.94-8.84,4.87-9.42,4.62-16.61,5.32-27.15.08-1.16.15-2.32.23-3.48.39-5.88.79-11.77.74-17.66-.03-3.39-.2-6.79-.37-10.18-.34-6.6-.67-13.22-1.72-19.75-.84-5.24-2.13-10.39-3.42-15.54-.47-1.9-.97-3.84-2.09-5.45-2.99-4.33-1.17-8.5-6.01-6.32-4.84,2.18-17.23,13.26-20.82,17.13-12.59,13.55-25.38,22.64-41.93,31.13,11.69-13.15,20.67-28.6,26.27-45.17,2.35-6.96,4.12-14.19,4.15-21.52.08-23.04-17.19-42.9-43.07-52.84-21.86-8.4-40.14-14.01-63.59-14.92-10.65-.41-23.3,1.31-33.76,2.21-2.06.18-3-2.38-5.06-2.21-7.08.6-12.38,1.66-20.82,4.42.92-1.82-1.99-2.33-3.94-1.66-4.93,1.69-10.82,3.83-15.76,5.52-2.97-2.7.56-4.42-9,.55-3.58,1.86-9.29,6.68-12.94,4.97,1.05-.73,2.04-5.6,1.55-6.77-7.74,3.46-16.75,8.43-21.25,10.64-4.85-2.47-9.45,1.37-13.51,4.97-4.05,3.6-6.78,8.4-11.82,10.5.47-1.79,2.04-6.12,1.13-7.73-5.75,5.31-15.03,11.86-18.57,18.78.65-2.23-.12-3.79-1.69-5.52-3.73,3.68-4.34,7.97-8.85,10.68-5.22,3.13-8.08,10.71-15.69,19.15-19.91,22.1-21.04,31.5-36.23,74.04-2.93,8.21-17.44,29.83-14.34,38.7-6.25,5.4-13.49,11.17-19.74,16.57-4.52,3.91-11.51,9.36-5.32,14.89-2.07.77.42,4.31,2.25,5.52,4.61,3.07,8.44,3.31,12.97,4.45,10.66,7.7,18.19,9.75,30.92,17.65,21.38,13.26,57.53,32.25,79.91,35.91,3.38.55,9.88-.73,17.44.55,23.99,4.08,43.84,2.75,67.43.34Z"/>
    <path class="cls-11" d="M398.71,208.96c-7.89-12.98-15.91-26.3-18.78-41.15-4.5-23.32,4.34-47.14,15.66-68.12"/>
    <path class="cls-8" d="M364.27,183.83c3.47-6.82,7-13.82,8.26-21.62,1.98-12.26-1.91-24.77-6.89-35.79"/>
    <path class="cls-11" d="M347.64,136.65c-2.18.79-4.48,1.26-6.81,1.4,6.19-9.37,11.96-18.92,16.98-28.94,4.56-9.09,8.67-18.53,10.45-28.52,1.78-9.99,1.09-20.64-3.56-29.69-3.74-7.27-9.8-13.14-16.29-18.21-14.33-11.2-31.29-19.14-49.17-23.04-16.36-3.57-33.26-3.77-50.02-3.95-9.64-.1-19.31-.21-28.86,1.1-19.29,2.63-37.44,10.92-56.74,13.46-2.95.39-5.94.65-8.8,1.47-2.23.64-4.35,1.62-6.45,2.61-14.24,6.75-28,14.49-41.14,23.13-2.88,1.89-6.07,3.92-9.51,3.5"/>
    <path class="cls-10" d="M405.3,91.79c1.62,22.19,2.62,44.42,3.01,66.67.31,17.73.1,36.07-7.31,52.28"/>
    <g class="cls-1">
      <path class="cls-18" d="M423.74,106.37c-27.88,14.93-59.44,31.14-87.81,45.1,27.88-14.93,59.44-31.14,87.81-45.1h0Z"/>
      <path class="cls-18" d="M423.74,101.09c-27.86,16.61-59.41,34.72-87.81,50.38,27.85-16.61,59.42-34.72,87.81-50.38h0Z"/>
      <path class="cls-18" d="M422.24,97.03c-27.35,17.9-58.37,37.47-86.31,54.44,27.35-17.9,58.37-37.47,86.31-54.44h0Z"/>
      <path class="cls-18" d="M420.73,87.28c-26.83,21-57.31,44.07-84.8,64.19,26.83-21,57.31-44.07,84.8-64.19h0Z"/>
      <path class="cls-18" d="M420.73,82.4c-26.82,22.55-57.29,47.37-84.8,69.07,26.81-22.55,57.29-47.37,84.8-69.07h0Z"/>
      <path class="cls-18" d="M423.93,90.55c-27.45,20.47-58.6,42.94-86.68,62.51,27.44-20.47,58.6-42.93,86.68-62.51h0Z"/>
      <path class="cls-18" d="M423.74,110.43c-27.9,13.64-59.46,28.39-87.81,41.04,27.89-13.64,59.46-28.39,87.81-41.04h0Z"/>
      <path class="cls-18" d="M423.74,114.49c-27.91,12.35-59.47,25.64-87.81,36.98,27.91-12.35,59.48-25.64,87.81-36.98h0Z"/>
      <path class="cls-18" d="M423.74,118.96c-27.94,10.92-59.5,22.61-87.81,32.51,27.94-10.93,59.5-22.61,87.81-32.51h0Z"/>
      <path class="cls-18" d="M423.74,123.43c-27.96,9.5-59.52,19.58-87.81,28.04,27.96-9.51,59.52-19.58,87.81-28.04h0Z"/>
      <path class="cls-18" d="M425.25,127.9c-28.47,8.08-60.57,16.55-89.32,23.57,28.47-8.08,60.57-16.55,89.32-23.57h0Z"/>
      <path class="cls-18" d="M423.74,132.77c-28.01,6.52-59.57,13.25-87.81,18.7,28.01-6.53,59.58-13.24,87.81-18.7h0Z"/>
      <path class="cls-18" d="M423.74,138.46c-28.05,4.71-59.61,9.39-87.81,13.01,28.05-4.71,59.61-9.38,87.81-13.01h0Z"/>
      <path class="cls-18" d="M425.25,143.74c-28.56,3.02-60.67,5.8-89.32,7.73,28.56-3.02,60.67-5.8,89.32-7.73h0Z"/>
      <path class="cls-18" d="M425.25,149.02c-28.59,1.33-60.7,2.22-89.32,2.45,28.59-1.34,60.7-2.21,89.32-2.45h0Z"/>
      <path class="cls-18" d="M428.27,153.89c-29.59-.23-62.78-1.1-92.33-2.42,29.59.23,62.78,1.1,92.33,2.42h0Z"/>
      <path class="cls-18" d="M428.27,159.17c-29.62-1.92-62.81-4.69-92.33-7.7,29.62,1.92,62.81,4.69,92.33,7.7h0Z"/>
      <path class="cls-18" d="M428.27,164.45c-29.65-3.62-62.84-8.28-92.33-12.98,29.65,3.61,62.84,8.29,92.33,12.98h0Z"/>
      <path class="cls-18" d="M428.27,169.33c-29.68-5.18-62.87-11.6-92.33-17.86,29.68,5.18,62.86,11.6,92.33,17.86h0Z"/>
      <path class="cls-18" d="M429.77,175.01c-30.19-7.01-63.92-15.47-93.84-23.54,30.19,7.01,63.92,15.47,93.84,23.54h0Z"/>
      <path class="cls-18" d="M432.79,179.89c-31.18-8.58-65.99-18.79-96.86-28.42,31.18,8.57,65.99,18.79,96.86,28.42h0Z"/>
      <path class="cls-18" d="M431.28,186.39c-30.73-10.67-65-23.22-95.35-34.92,30.73,10.67,65,23.22,95.35,34.92h0Z"/>
      <path class="cls-18" d="M431.28,191.67c-30.75-12.37-65.02-26.82-95.35-40.2,30.75,12.37,65.02,26.82,95.35,40.2h0Z"/>
      <path class="cls-18" d="M431.28,197.76c-30.78-14.34-65.05-30.97-95.35-46.29,30.78,14.33,65.05,30.97,95.35,46.29h0Z"/>
      <path class="cls-18" d="M431.28,203.45c-30.8-16.17-65.07-34.85-95.35-51.98,30.8,16.17,65.07,34.85,95.35,51.98h0Z"/>
      <path class="cls-18" d="M429.77,209.54c-30.34-18.14-64.07-39-93.84-58.07,30.35,18.13,64.07,39.01,93.84,58.07h0Z"/>
      <path class="cls-18" d="M429.77,215.23c-30.36-19.97-64.09-42.88-93.84-63.76,30.37,19.97,64.09,42.88,93.84,63.76h0Z"/>
      <path class="cls-18" d="M425.25,221.32c-28.95-21.94-61.05-47.04-89.32-69.85,28.95,21.94,61.05,47.05,89.32,69.85h0Z"/>
      <path class="cls-18" d="M423.74,228.23c-28.49-24.17-60.05-51.76-87.81-76.76,28.49,24.17,60.05,51.76,87.81,76.76h0Z"/>
    </g>
    <path class="cls-5" d="M340.92,138.18c-11.8-18.12-25.5-35.61-43.73-47.53-5.14-3.36-10.59-6.25-15.55-9.86-6.24-4.55-11.57-10.18-17.53-15.08-20.38-16.75-48.29-24.33-74.54-20.22-8.79,1.37-17.33,3.97-26.06,5.67-13.42,2.61-27.31,3.1-40.34,7.19-10.22,3.2-19.59,8.52-28.87,13.79-9.09,5.17-21.03,10.98-29.47,20.93"/>
    <path class="cls-2" d="M363.79,183.41l-7.53-4.36c3.47,5.32,6.93,10.65,10.4,15.97,3.48,5.35,9.34,13.21,10.76,19.41,2.79,12.23-2.91,22.45-9.57,33.15-4.41,7.09-11.8,13.83-17.81,19.69-10.13,9.89-23.33,16.49-37.21,19.83-13.88,3.34-28.42,3.51-42.58,1.65-6.69-.88-13.32-2.21-19.82-3.97-4.18-1.13-8.35-2.45-12.68-2.7-4.75-.28-15.73-.71-20.15-2.45"/>
    <path class="cls-6" d="M148.18,211.44c3.4.22,6.87.46,10.04,1.69s6.07,3.62,6.98,6.85c.97,3.4-.36,7.19.95,10.48.48,1.2,1.29,2.31,1.41,3.59s-.96,2.8-2.23,2.46c2.92,1.76,4.97,4.84,5.46,8.16-3.32.91-6.28-4-9.52-2.86-.66.23-1.21.69-1.86.95-2.68,1.06-5.23-1.62-6.97-3.88-9.01-11.69-19.97-15.99-32.51-22.64-7.56-4.01-1.36-6.4,4.74-6.34,7.81.08,15.72,1.03,23.51,1.54Z"/>
    <path class="cls-13" d="M120.72,216.64c4.54,2,14.63,6.81,15.51,4.53.28-.73,1.62.08,2.35-.24,1.07-.48,1.68-1.64,1.89-2.78.56-3.1-1.45-6.96-4.55-7.77"/>
    <path class="cls-18" d="M133.47,221.98c5.23,1.64,10.06,4.42,14.28,7.91,4.28,3.35,7.03,8.52,12.19,10.63-1.33-.33-2.57-.96-3.71-1.73-3.34-2.38-5.82-5.76-9.02-8.26-4.12-3.52-8.8-6.3-13.74-8.55h0Z"/>
    <path class="cls-18" d="M136.85,220.69c5.12,1.45,9.92,3.94,14.17,7.14,4.3,3.07,7.22,7.92,12.3,9.8-1.3-.29-2.53-.85-3.67-1.55-3.35-2.16-5.9-5.33-9.12-7.62-4.16-3.23-8.82-5.73-13.68-7.77h0Z"/>
    <path class="cls-18" d="M140.03,218.3c4.85,1.34,9.4,3.66,13.44,6.66,4.09,2.87,6.89,7.42,11.7,9.18-1.23-.27-2.4-.79-3.48-1.44-3.18-2.02-5.62-5-8.68-7.13-3.95-3.03-8.38-5.36-12.98-7.26h0Z"/>
    <path class="cls-18" d="M140.79,215.54c4.24.87,8.33,2.44,12.1,4.57,3.8,2.05,6.73,5.5,10.98,6.66-1.07-.17-2.11-.51-3.1-.96-2.92-1.41-5.34-3.67-8.19-5.17-3.71-2.17-7.71-3.76-11.79-5.09h0Z"/>
    <path class="cls-18" d="M138.79,211.72c4.64.5,9.18,1.8,13.42,3.74,4.26,1.85,7.72,5.32,12.4,6.15-1.16-.07-2.31-.34-3.42-.73-3.27-1.24-6.07-3.45-9.26-4.81-4.18-1.99-8.63-3.32-13.14-4.34h0Z"/>
    <path class="cls-18" d="M80.66,188.15c-2.84,4.42-1.13,9.85-.2,14.6,1.42,6.96,2.19,19.81-2.24,25.69-3.88,4.43-12.34,5.82-17.47,4.77-.39,4.97,6.76,4.11,10,3.73,4.02-.55,8.35-3,9.19-7.26.05.03-1.62.03-1.61.04,0,0,1.64-.06,1.63-.04-.8,4.29-5.13,6.84-9.18,7.39-3.39.42-10.58,1.27-10.2-3.91,4.9.49,10.19-.07,14.6-2.54,2.22-1.18,3.84-3.2,4.64-5.57,2.13-7.17,1.91-14.97.51-22.27-.92-4.75-2.55-10.24.34-14.62h0Z"/>
    <path class="cls-14" d="M73.75,229.35l-5.1-2.31-5.86.02-4.58,4.19c2.29,2.79,5.51,4.7,8.91,4.39,3.33-.3,4.87-3.56,6.62-6.3Z"/>
    <path class="cls-14" d="M78.48,226.98l-2.54.28-3.07,1.73-2.62,3.56c1.05.8,2.63.86,4.43-.3,1.76-1.14,2.74-3.31,3.8-5.27Z"/>
    <path class="cls-14" d="M80.8,220.82l-2.12,1.28-1.85,2.69-.53,4.01c1.33.23,2.77-.38,3.78-2.07.99-1.66.76-3.85.72-5.9Z"/>
    <path class="cls-14" d="M83.12,213.44l-1.95,1.51-1.52,2.88-.06,4.04c1.35.07,2.71-.69,3.51-2.49.79-1.77.3-3.91.02-5.94Z"/>
    <path class="cls-14" d="M80.97,202.55l-1.42,2-.6,3.19,1.14,3.88c1.31-.31,2.39-1.43,2.62-3.38.23-1.91-.86-3.83-1.74-5.69Z"/>
    <path class="cls-14" d="M78.65,193.86l-1.13,2.17-.15,3.24,1.67,3.69c1.26-.49,2.17-1.74,2.13-3.7-.04-1.93-1.39-3.68-2.51-5.41Z"/>
    <path class="cls-14" d="M62.89,176.78l.55,2.38,2,2.59,3.69,1.79c.65-1.17.53-2.7-.78-4.18-1.29-1.46-3.47-1.95-5.46-2.57Z"/>
    <path class="cls-14" d="M58.95,173.74l.55,2.38,2,2.59,3.69,1.79c.65-1.17.53-2.7-.78-4.18-1.29-1.46-3.47-1.95-5.46-2.57Z"/>
    <path class="cls-14" d="M77.2,189.39l-2.55,2.39-1.37,3.51,1.36,3.93c2.17-.57,4.05-1.95,4.67-4.07.61-2.08-.93-3.93-2.11-5.75Z"/>
    <path class="cls-14" d="M73.63,186.04l-1.65,3.06-.17,3.75,2.56,3.3c1.87-1.22,3.21-3.11,3.12-5.32-.09-2.16-2.14-3.44-3.86-4.8Z"/>
    <path class="cls-14" d="M71.24,183.27l-1.65,3.06-.17,3.75,2.56,3.3c1.87-1.22,3.21-3.11,3.12-5.32-.09-2.16-2.14-3.44-3.86-4.8Z"/>
    <path class="cls-14" d="M81.48,209.29l-2.84,2.05-1.82,3.3.84,4.07c2.23-.29,4.27-1.43,5.17-3.45.88-1.99-.41-4.01-1.34-5.97Z"/>
    <path class="cls-14" d="M73.75,229.26l-3.43-.8-3.74.78-2.61,3.27c1.67,1.47,3.88,2.27,6.02,1.62,2.11-.63,2.85-2.9,3.76-4.87Z"/>
    <path class="cls-14" d="M78.26,223.64l-3.48.58-3.13,2.16-1.11,4.01c2.12.72,4.47.6,6.19-.82,1.69-1.39,1.47-3.76,1.52-5.93Z"/>
    <path class="cls-14" d="M78.25,215.42l-1.89,2.92-.47,3.73,2.29,3.49c1.97-1.07,3.45-2.85,3.54-5.06.08-2.16-1.86-3.59-3.46-5.09Z"/>
    <path class="cls-14" d="M79.65,213.02l-2.84,2.05-1.82,3.3.84,4.07c2.23-.29,4.27-1.43,5.17-3.45.88-1.99-.41-4.01-1.34-5.97Z"/>
    <path class="cls-14" d="M80.07,205.7l-2.84,2.05-1.82,3.3.84,4.07c2.23-.29,4.27-1.43,5.17-3.45.88-1.99-.41-4.01-1.34-5.97Z"/>
    <path class="cls-14" d="M79,198.74l-2.54,2.4-1.36,3.51,1.38,3.92c2.17-.58,4.04-1.97,4.65-4.09.6-2.08-.95-3.92-2.14-5.74Z"/>
    <path class="cls-14" d="M78.03,195.28l-2.75,2.17-1.67,3.38,1.02,4.03c2.21-.39,4.2-1.61,5-3.67.79-2.02-.59-3.99-1.61-5.91Z"/>
    <path class="cls-14" d="M77.26,192.44l-2.84,2.05-1.82,3.3.84,4.07c2.23-.29,4.27-1.43,5.17-3.45.88-1.99-.41-4.01-1.34-5.97Z"/>
    <path class="cls-14" d="M74.87,189.68l-2.84,2.05-1.82,3.3.84,4.07c2.23-.29,4.27-1.43,5.17-3.45.88-1.99-.41-4.01-1.34-5.97Z"/>
    <path class="cls-14" d="M70.99,187.7l-2.47,2.47-1.26,3.55,1.49,3.89c2.15-.64,3.98-2.08,4.53-4.22.54-2.1-1.06-3.89-2.3-5.68Z"/>
    <path class="cls-14" d="M66.98,180.83l-.34,2.97,1.15,3.24,3.3,2.25c1.16-1.45,1.63-3.36.79-5.21-.82-1.82-2.99-2.46-4.91-3.25Z"/>
    <path class="cls-14" d="M77.68,210.54l-2.84,2.05-1.82,3.3.84,4.07c2.23-.29,4.27-1.43,5.17-3.45.88-1.99-.41-4.01-1.34-5.97Z"/>
    <path class="cls-14" d="M78.11,204.03l-2.84,2.05-1.82,3.3.84,4.07c2.23-.29,4.27-1.43,5.17-3.45.88-1.99-.41-4.01-1.34-5.97Z"/>
    <path class="cls-14" d="M76.13,207.77l-2.84,2.05-1.82,3.3.84,4.07c2.23-.29,4.27-1.43,5.17-3.45.88-1.99-.41-4.01-1.34-5.97Z"/>
    <path class="cls-14" d="M76.7,200.73l-2.84,2.05-1.82,3.3.84,4.07c2.23-.29,4.27-1.43,5.17-3.45.88-1.99-.41-4.01-1.34-5.97Z"/>
    <path class="cls-14" d="M74.87,197.42l-2.84,2.05-1.82,3.3.84,4.07c2.23-.29,4.27-1.43,5.17-3.45.88-1.99-.41-4.01-1.34-5.97Z"/>
    <path class="cls-14" d="M72.48,195.21l-2.84,2.05-1.82,3.3.84,4.07c2.23-.29,4.27-1.43,5.17-3.45.88-1.99-.41-4.01-1.34-5.97Z"/>
    <path class="cls-14" d="M69.66,192.3l-2.84,2.05-1.82,3.3.84,4.07c2.23-.29,4.27-1.43,5.17-3.45.88-1.99-.41-4.01-1.34-5.97Z"/>
    <path class="cls-14" d="M74.17,205.7l-2.84,2.05-1.82,3.3.84,4.07c2.23-.29,4.27-1.43,5.17-3.45.88-1.99-.41-4.01-1.34-5.97Z"/>
    <path class="cls-14" d="M72.34,203.08l-2.84,2.05-1.82,3.3.84,4.07c2.23-.29,4.27-1.43,5.17-3.45.88-1.99-.41-4.01-1.34-5.97Z"/>
    <path class="cls-14" d="M70.23,199.62l-2.84,2.05-1.82,3.3.84,4.07c2.23-.29,4.27-1.43,5.17-3.45.88-1.99-.41-4.01-1.34-5.97Z"/>
    <path class="cls-14" d="M68.26,197.28l-2.84,2.05-1.82,3.3.84,4.07c2.23-.29,4.27-1.43,5.17-3.45.88-1.99-.41-4.01-1.34-5.97Z"/>
    <path class="cls-14" d="M68.83,230.75l-3.2-1.45-3.83.04-3.22,2.7c1.34,1.77,3.35,2.97,5.58,2.76,2.19-.21,3.37-2.3,4.67-4.05Z"/>
    <path class="cls-14" d="M65.73,226.88l-3.2-1.45-3.83.04-3.22,2.7c1.34,1.77,3.35,2.97,5.58,2.76,2.19-.21,3.37-2.3,4.67-4.05Z"/>
    <path class="cls-14" d="M65.17,223.7l-3.2-1.45-3.83.04-3.22,2.7c1.34,1.77,3.35,2.97,5.58,2.76,2.19-.21,3.37-2.3,4.67-4.05Z"/>
    <path class="cls-14" d="M64.75,223.7l-3.2-1.45-3.83.04-3.22,2.7c1.34,1.77,3.35,2.97,5.58,2.76,2.19-.21,3.37-2.3,4.67-4.05Z"/>
    <path class="cls-14" d="M64.33,221.08l-3.2-1.45-3.83.04-3.22,2.7c1.34,1.77,3.35,2.97,5.58,2.76,2.19-.21,3.37-2.3,4.67-4.05Z"/>
    <path class="cls-14" d="M63.2,217.76l-3.2-1.45-3.83.04-3.22,2.7c1.34,1.77,3.35,2.97,5.58,2.76,2.19-.21,3.37-2.3,4.67-4.05Z"/>
    <path class="cls-14" d="M61.23,214.59l-3.2-1.45-3.83.04-3.22,2.7c1.34,1.77,3.35,2.97,5.58,2.76,2.19-.21,3.37-2.3,4.67-4.05Z"/>
    <path class="cls-14" d="M59.54,211.41l-3.2-1.45-3.83.04-3.22,2.7c1.34,1.77,3.35,2.97,5.58,2.76,2.19-.21,3.37-2.3,4.67-4.05Z"/>
    <path class="cls-14" d="M58.56,208.37l-3.2-1.45-3.83.04-3.22,2.7c1.34,1.77,3.35,2.97,5.58,2.76,2.19-.21,3.37-2.3,4.67-4.05Z"/>
    <path class="cls-17" d="M56.1,206.26l-2.78-1.32-3.29-.04-2.71,2.29c1.19,1.57,2.93,2.65,4.85,2.51,1.88-.14,2.85-1.94,3.93-3.44Z"/>
    <path class="cls-14" d="M72.84,226.37l-3.45-.7-3.72.89-2.51,3.34c1.72,1.42,3.95,2.15,6.07,1.44,2.09-.69,2.75-2.99,3.61-4.98Z"/>
    <path class="cls-14" d="M76.76,219.01l-3.28,1.26-2.62,2.74-.25,4.15c2.23.28,4.5-.3,5.89-2.03,1.37-1.7.66-3.98.27-6.11Z"/>
    <path class="cls-14" d="M75.36,216.11l-3.28,1.26-2.62,2.74-.25,4.15c2.23.28,4.5-.3,5.89-2.03,1.37-1.7.66-3.98.27-6.11Z"/>
    <path class="cls-14" d="M74.09,213.62l-3.28,1.26-2.62,2.74-.25,4.15c2.23.28,4.5-.3,5.89-2.03,1.37-1.7.66-3.98.27-6.11Z"/>
    <path class="cls-14" d="M72.83,210.45l-3.28,1.26-2.62,2.74-.25,4.15c2.23.28,4.5-.3,5.89-2.03,1.37-1.7.66-3.98.27-6.11Z"/>
    <path class="cls-14" d="M70.86,206.85l-3.28,1.26-2.62,2.74-.25,4.15c2.23.28,4.5-.3,5.89-2.03,1.37-1.7.66-3.98.27-6.11Z"/>
    <path class="cls-14" d="M69.03,204.23l-3.28,1.26-2.62,2.74-.25,4.15c2.23.28,4.5-.3,5.89-2.03,1.37-1.7.66-3.98.27-6.11Z"/>
    <path class="cls-14" d="M66.49,202.02l-3.28,1.26-2.62,2.74-.25,4.15c2.23.28,4.5-.3,5.89-2.03,1.37-1.7.66-3.98.27-6.11Z"/>
    <path class="cls-14" d="M65.93,198.89l-3.28,1.26-2.62,2.74-.25,4.15c2.23.28,4.5-.3,5.89-2.03,1.37-1.7.66-3.98.27-6.11Z"/>
    <path class="cls-14" d="M72.14,224.08l-3.39-.95-3.78.62-2.76,3.15c1.6,1.55,3.77,2.44,5.94,1.89,2.14-.54,2.98-2.77,3.98-4.7Z"/>
    <path class="cls-14" d="M71.72,221.32l-3.39-.95-3.78.62-2.76,3.15c1.6,1.55,3.77,2.44,5.94,1.89,2.14-.54,2.98-2.77,3.98-4.7Z"/>
    <path class="cls-14" d="M70.45,218.01l-3.39-.95-3.78.62-2.76,3.15c1.6,1.55,3.77,2.44,5.94,1.89,2.14-.54,2.98-2.77,3.98-4.7Z"/>
    <path class="cls-14" d="M68.4,214.48l-3.43-.8-3.74.78-2.61,3.27c1.67,1.47,3.88,2.27,6.03,1.62,2.11-.63,2.84-2.9,3.76-4.87Z"/>
    <path class="cls-14" d="M66.65,211.93l-3.39-.95-3.78.62-2.76,3.15c1.6,1.55,3.77,2.44,5.94,1.89,2.14-.54,2.98-2.77,3.98-4.7Z"/>
    <path class="cls-14" d="M65.81,208.75l-3.39-.95-3.78.62-2.76,3.15c1.6,1.55,3.77,2.44,5.94,1.89,2.14-.54,2.98-2.77,3.98-4.7Z"/>
    <path class="cls-14" d="M64.12,205.85l-3.39-.95-3.78.62-2.76,3.15c1.6,1.55,3.77,2.44,5.94,1.89,2.14-.54,2.98-2.77,3.98-4.7Z"/>
    <path class="cls-14" d="M61.97,202.94l-3.5-.42-3.63,1.19-2.22,3.53c1.83,1.28,4.11,1.83,6.17.95,2.02-.86,2.5-3.2,3.18-5.26Z"/>
    <path class="cls-14" d="M68.4,186.5l-.65,1.85.25,2.17,1.76,1.77c.95-.8,1.53-1.97,1.27-3.23-.25-1.24-1.53-1.87-2.63-2.56Z"/>
    <path class="cls-14" d="M56.88,174.18l1.03,1.68,1.86,1.2,2.51-.19c-.02-1.23-.56-2.41-1.72-3.03-1.13-.6-2.44-.04-3.69.35Z"/>
    <path class="cls-14" d="M62.45,176.87l.58,1.87,1.5,1.62,2.48.42c.29-1.19.07-2.47-.9-3.35-.95-.86-2.36-.63-3.66-.57Z"/>
    <path class="cls-14" d="M67.15,180.71l-.63,1.86.27,2.17,1.77,1.75c.94-.81,1.51-1.98,1.24-3.24-.26-1.24-1.55-1.85-2.65-2.54Z"/>
    <path class="cls-14" d="M66.17,198.86l-1.96.38-1.79,1.31-.67,2.38c1.18.4,2.5.31,3.48-.55.97-.84.87-2.24.93-3.52Z"/>
    <path class="cls-11" d="M296.48,126.04c1.59,21.11,2.7,42.25,3.33,63.41-1.17.62-2.16-1.07-2.38-2.35-2.92-16.86-3.35-34.14-1.26-51.12.45-3.7.6-6.23.31-9.95Z"/>
    <path class="cls-11" d="M289.56,168.35c.87,3.51,2.2,6.89,3.15,10.38,1.83,6.75,2.19,13.78,2.53,20.76.43,8.64.77,17.74-3.29,25.42,2.69-10.5-.65-21.43-2.71-32.07-2.83-14.61-3.24-29.56-3.63-44.42-.28-10.35-1.19-20.92-.71-31.25,5.81,3.1,3.77,18.24,3.57,23.79-.33,9.26,1.09,18.33,1.09,27.39Z"/>
    <path class="cls-11" d="M271.61,108.85c.33,2.84.44,5.8,1.79,8.32.88,1.65,2.24,3.01,3.11,4.66,1.34,2.54,1.4,5.53,1.32,8.4-.21,7.1-1.15,14.19-.79,21.29.63,12.46,5.24,24.57,4.95,37.04-.45,19.15-12.4,36.87-11.79,56.02.11,3.51.37,7.68-2.46,9.83-4.68-23.33,9.2-46.67,8.2-70.42-.33-7.79-2.25-15.42-3.06-23.17-.95-9.08-.36-18.23-.12-27.35.16-6.2.15-12.51-1.69-18.45-2.05-6.6-8.89-15.1-7.47-22.1,6.16,1.26,7.44,10.96,8.02,15.95Z"/>
    <path class="cls-11" d="M264.04,170.5c.73,12.68,2.8,25.27,3.21,37.96.41,12.69-.92,25.75-6.6,37.15-3.27,6.57-7.88,12.4-12.47,18.16-4.59,5.77-10.33,12.08-17.79,11.87-.78-2.46,1.86-4.67,4.35-5.48s5.4-1.2,6.96-3.27c2.38-3.18.27-8.74,3.62-10.91,1.22-.79,2.79-.79,4.14-1.33,3.09-1.23,4.29-4.82,5.13-7.99,1.7-6.4,3.4-12.79,5.1-19.19.35-1.3.69-2.62.6-3.96-.17-2.39-1.73-4.51-2.04-6.88-.4-3.05,1.29-5.94,2.17-8.9,1.05-3.56.93-7.34.8-11.04-.91-25.77-1.81-51.54-2.72-77.31-.3-8.4-1.16-16.1-4.41-23.93-1.76-4.23-5-9.72-3.21-14.26,18.42,24.17,11.52,61.31,13.14,89.31Z"/>
    <path class="cls-11" d="M216.3,276.37c6.39-.82,11.74-5.22,15.71-10.19,3.98-4.97,6.97-10.66,11.01-15.58,2.34-2.84,5.04-5.45,6.78-8.68,2.4-4.46,2.74-9.67,2.94-14.71,1.05-26.27-.28-52.57-1.62-78.83-.39-7.76-.79-15.51-1.18-23.27-.68-13.39-1.42-27.05-6.4-39.53-.77-1.92-1.63-3.8-2.5-5.69-.9-1.97-1.81-3.94-2.71-5.91-2.31-5.04-4.62-10.07-6.94-15.11-1.79,15.8,10.17,28.07,13.28,43.68,1,5.01,1.13,10.14,1.27,15.24.57,21.88,1.15,43.76,1.72,65.64.16,6.19.32,12.41-.48,18.55-.72,5.49-2.2,10.86-3.88,16.15-6.64,21.01-14.65,39.88-26.99,58.24Z"/>
    <path class="cls-11" d="M365.82,184.65c-4.97-3.67-10.29-7.49-16.49-8.03-2.1-.18-4.21.02-6.31.22-5.32.52-10.65,1.04-15.97,1.55-7.13,35.19-26.7,67.94-54.24,91.53-7.62,6.53-16.65,12.64-26.75,12.5"/>
    <path class="cls-12" d="M222.54,51.01c-.32,7,.95,14.06,3.71,20.54.75,1.77,1.63,3.57,1.63,5.49,0,1.23-.36,2.42-.51,3.64-.83,6.5,4.16,12.23,5.89,18.56.85,3.11.91,6.37.96,9.59.35,22.19.69,44.38,1.04,66.58,2.17-.76,4.44,1.36,4.8,3.56s-.53,4.39-1.08,6.56c-1.31,5.19-.69,10.61-.88,15.95-.44,12.28-5.14,23.99-9.77,35.43-3.76,9.27-7.52,18.55-11.28,27.82-2.17,5.36-6.17,11.8-12.04,10.82,7.51-6.81,10.43-17.16,12.41-26.93,1.98-9.77,2.81-19.84,6.4-29.17,1.65-4.3,3.87-8.39,5.3-12.76,2.25-6.92,2.42-14.28,2.58-21.53.29-13.32.57-26.64.86-39.97.21-9.94.43-19.93-.9-29.8-2.96-22.07-13.44-42.53-9.12-64.39Z"/>
    <path class="cls-12" d="M213.52,85.82c.93,3.79,2.47,7.41,3.43,11.19,1.25,4.92,1.49,10.02,1.71,15.09,1.06,25.21,1.36,50.45.9,75.68-.49,26.64-2.05,54.2-14.31,77.97-2.3,4.46-5.78,9.26-10.87,9.5-.02-5.62,3.05-10.73,5.11-15.98,2.26-5.77,3.32-11.92,4.37-18.01,1.85-10.76,3.7-21.53,5.55-32.29,2.13-12.43,4.27-24.88,5.13-37.45.62-9.06.57-18.15.52-27.22-.06-10.9-.11-21.79-.17-32.69-.04-6.79-.08-13.67-1.76-20.26-1.78-6.98-5.39-13.8-4.59-20.96.5-4.46,2.71-8.85,1.84-13.26-.51-2.6-2.16-5.09-1.26-7.5,7.15,3.94,2.52,28.53,4.41,36.19Z"/>
    <path class="cls-12" d="M198.65,73.54c-.31,3.07-.62,6.17-.15,9.22.41,2.66,1.4,5.2,2.17,7.78,3.14,10.44,2.78,21.55,2.38,32.44-.95,26.49-1.91,52.99-3.06,79.47-.96,21.98-2.18,44.48-10.91,64.74-1.67,3.88-4.32,8.16-8.6,8.53.96-8.77,1.93-17.53,2.89-26.3.48-4.35.96-8.72,1.95-12.99,1.25-5.34,3.28-10.48,4.69-15.78,2.07-7.8,2.75-15.87,3.42-23.9,1.51-17.97,3.02-35.94,4.53-53.91,1.27-15.14,2.54-30.42.5-45.47-.7-5.2-1.8-10.35-2.25-15.58-.57-6.71-.06-13.46.45-20.17.32-4.26.45-11.32,4.27-13.99.89,8.11-1.48,17.7-2.3,25.9Z"/>
    <path class="cls-12" d="M187.6,153.85c2.51-16.16,6.97-32.47,4.35-48.61-1.01-6.21-3.06-12.24-3.68-18.49-1.32-13.11,3.93-21.61.38-32.58-.41-1.27-2.28-1.11-2.45.2-2.57,19.57-5.19,34.12-2.35,54.49.86,6.19,2.18,12.34,2.3,18.59.17,9.32-2.34,18.45-4.25,27.57-3.87,18.48-5.28,37.33-6.69,56.11-.71,9.52-1.4,19.04-2.42,28.54-.73,6.87-4.53,17.8-2.82,24.23,13.01-4.62,12.03-36.18,12.83-46.85,1.58-21.07,1.55-42.28,4.8-63.2Z"/>
    <path class="cls-12" d="M166.66,206.52c1.74-2.02,1.45-4.99,1.22-7.63-1.46-17.28,4.3-34.28,6.11-51.53,3.37-32.15-6.98-65.36,1.53-96.59-8.97,6.88-8.37,20.08-7.67,31.24,1.51,23.95-.39,47.97-2.29,71.9-.89,11.18-1.78,22.37-2.67,33.55-.39,4.86-1.68,10.45-1.39,15.27.13,2.16,1.06,8.54,5.15,3.78Z"/>
    <path class="cls-12" d="M149.46,201.03c1.44-1.09,1.74-3.06,1.94-4.83,3.73-33.46,7.47-67.06,6.19-100.69-.33-8.67-.99-17.43.58-25.97.92-4.99,2.59-10.12,1.28-15.03-5.76,12.44-5.55,26.65-5.23,40.31.25,10.92.5,21.84.75,32.77-10.69-21.06-13.19-46.01-6.89-68.72.56-2.02.5-5.07-1.63-5.18-1.7-.09-2.52,1.99-2.81,3.64-2.56,14.26-5.12,28.93-2.15,43.11,2.39,11.41,8.29,22.01,9.66,33.58.77,6.52.07,13.11-.63,19.63-1,9.34-2,18.68-3,28.02-.25,2.32-3.93,23.83,1.95,19.36Z"/>
    <path class="cls-12" d="M131.68,89.88c-.06,6.62-.11,13.26.74,19.83.83,6.4,2.52,12.67,3.64,19.03,3.88,22.08.84,44.73-3.13,66.8-.82,4.56-1.39,10.03,2.15,13.09,2.88-.75,3.61-4.36,3.81-7.27,1.58-23.47,3.16-46.95,4.74-70.42.07-1.1.14-2.26-.32-3.27-.5-1.08-1.52-1.82-2.26-2.75-1.26-1.57-1.69-3.62-2.08-5.58-3.27-16.49-6.37-33.29-2.99-50.01.34-1.7,3.02-8.24.88-9.36-1.97-1.03-4.16,2.02-4.82,3.35-2.97,5.99-.3,19.82-.35,26.57Z"/>
    <path class="cls-12" d="M124.43,70.23c-.5,12.53-.58,25.07-.25,37.6.11,4.14.28,8.34,1.62,12.26.81,2.36,2.03,4.58,2.75,6.97.91,3.03.99,6.23,1.05,9.39.29,16.69,0,33.39-.84,50.06-.22,4.29-.99,9.38-4.93,11.25,1.15-18.01,2.31-36.02,3.46-54.04.35-5.43.69-10.93-.31-16.29-.67-3.62-1.95-7.1-2.87-10.66-2.05-7.9-2.34-16.13-2.63-24.28-.28-7.98-.8-15.99-.84-23.97,0-1.24-.58-9.44,3.55-7.14,2.74,1.52.33,6.28.22,8.85Z"/>
    <path class="cls-12" d="M323.23,143.62c-1.22-.13-2.5-.23-3.62.26-2.99,1.3-2.86,5.44-2.31,8.61.51,2.94.95,5.96.45,8.9-.45,2.65-1.65,5.44-.58,7.92,1.11,2.57,4.31,3.69,7.14,3.51s5.5-1.33,8.26-2.02c3.24-.82,6.64-1,9.97-.67,1.82.18,3.66.51,5.46.21,1.8-.31,3.6-1.44,4.04-3.18.84-3.39-3.7-6.16-3.42-9.64.51-6.31,2.63-7.94-4.11-10.04-6.43-2-14.48-3.15-21.27-3.87Z"/>
    <path class="cls-12" d="M111.28,105.07c.4,5.6.89,11.46,3.95,16.2,1.04,1.61,2.36,3.06,3.09,4.82.96,2.29.82,4.86.67,7.33-.99,16.49-1.98,32.98-2.98,49.47,2.01.27,2.96-2.34,3.15-4.33,1.14-11.77,2.28-23.54,3.42-35.31.64-6.64,1.27-13.48-.61-19.89-.91-3.11-2.4-6.05-3.26-9.18-1.16-4.23-1.13-8.67-1.09-13.04.05-6.08.1-12.16.15-18.25.03-3.45-.6-7.82-3.98-8.76.53-1.63,1.06-3.26,1.59-4.9.66-2.01-5.23-1.46-6.16-.41-1.55,1.74.02,7.92.16,9.94.63,8.77,1.26,17.54,1.89,26.31Z"/>
    <path class="cls-12" d="M102.49,106.16c.56,5.83,1.43,11.9,4.87,16.69,1.38,1.92,3.16,3.59,4.15,5.73,1.03,2.2,1.13,4.7,1.19,7.12.33,12.81,0,25.63-1,38.41-4.67-11.58-.14-24.83-2.63-37.05-1.03-5.04-3.23-9.77-4.97-14.62-5.24-14.56-7.13-32.22-2.76-47.22.02,10.34.15,20.62,1.15,30.93Z"/>
    <path class="cls-7" d="M90.16,99.56c-.85,11.14,4.95,21.81,9.72,32.29,4.77,10.48,8.59,22.15,3.85,32.64-1.07.04-2.13.07-3.2.11,1.3-8.9-.06-18.04-3.93-26.45-2.34-5.09-5.59-9.91-7.58-15.1-4.86-12.67-2.75-29.11,3.2-41.36,3.4,3.67-1.71,13.32-2.06,17.87Z"/>
    <path class="cls-7" d="M77.28,183.96c2.57,2.26,5.19,4.57,6.89,7.51,2.26,3.89,2.71,8.51,3.11,12.98.47,5.16.93,10.42-.15,15.49s-3.93,10.04-8.6,12.46c-4.87,2.52-11.04,2-15.63,5,1.88,3.54,4.19,6.87,6.86,9.89,1.82,2.07,4.57,4.16,7.13,3.08,2.33-.98,2.88-3.89,3.41-6.32,1.76-8.11,6.87-15.46,13.92-20.02,1.68-1.09,3.55-2.11,4.48-3.85,1.47-2.74.15-6.31,1.58-9.07.94-1.81,2.87-2.88,4.45-4.21,5.94-5,6.72-14.21,3.5-21.21-3.22-7-9.61-12.12-16.31-16.08-5.02-2.97-10.49-5.48-16.33-6.01-3.18-.29-16.93,1.26-15.84,6.51.17.84,6.03,3.84,6.85,4.47,3.75,2.84,7.15,6.28,10.68,9.38Z"/>
    <path class="cls-7" d="M83.7,129.46c3.91,10.83,10.99,21.8,7.98,32.9-1.9-1.38-1.73-4.14-2.12-6.43s-2.85-4.81-4.75-3.43c-2.1,1.53-1.02,6.37-3.63,6.17-1.21-.09-1.81-1.5-1.86-2.69-.08-2.23.86-4.35,1.4-6.52,3.51-14.15-10.12-27.75-8.63-42.24.46-4.48,5.49-19.15,11.01-18.4-2.75,14.02-4.43,26.73.6,40.64Z"/>
    <path class="cls-7" d="M69.63,148.6c-.83,1.99-1.35,4.1-1.53,6.24-.11,1.35-.11,2.79-.85,3.94s-2.56,1.75-3.51.76c-.22-4.8.46-9.63,1.99-14.19.46-1.37,1.08-2.81,2.34-3.54.53-.31,1.15-.47,1.61-.87,1.54-1.35.15-3.76-1.04-5.42-3.39-4.72-4.72-10.52-5.98-16.15-.66-2.97-1.25-6.35.59-8.8,3.47,8.21,8.4,15.78,11.52,24.13,2.57,6.89,4.71,16.79.83,23.55-1.75-1.47-3.29-16.06-5.98-9.65Z"/>
    <path class="cls-7" d="M60.05,144.84c.53-1.84,1.06-3.69,1.2-5.59.31-4.17-1.23-8.23-2.75-12.13-2.79,2.7-2.25,7.13-2.03,10.97.3,5-.29,10.05-1.72,14.86-.67,2.25-1.27,4.42-.49,6.58,3.87-2.93,4.51-10.24,5.78-14.69Z"/>
    <path class="cls-7" d="M139.11,260.72c-.17,1.94-.27,4.01.7,5.7s3.43,2.71,5.01,1.53c1.34-.99,1.41-2.91,1.36-4.55-.07-2.34-.14-4.67-.21-7.01-.08-2.56-.16-5.14-.62-7.67-.39-2.13-.97-4.13-2.13-5.9-3.75,3.2-3.69,13.1-4.12,17.89Z"/>
    <path class="cls-7" d="M155.68,252.4c-.74-1.28.59-3.02,2.09-3.04s2.78,1.22,3.27,2.6.39,2.91.27,4.38c-.31,3.92-.62,7.84-.93,11.76-.16,1.97-.63,4.35-2.53,4.98-1.46.48-3.09-.44-3.89-1.73s-.98-2.85-1.14-4.35c-.54-5.14-.81-11.07,2.99-14.66"/>
    <path class="cls-7" d="M131.35,245.42c-.91,4.49-3.79,8.46-4.36,13-.2,1.57-.11,3.2-.63,4.7s-1.89,2.89-3.5,2.76c-2.26-.19-3.18-2.98-3.08-5.2.31-6.9,5.01-12.92,6.03-19.75.37-2.49,1.24-10.25,5.52-7.13,2.05,1.49.45,9.51.02,11.63Z"/>
    <ellipse class="cls-16" cx="52.95" cy="191.18" rx="15.79" ry="16.46"/>
    <ellipse class="cls-4" cx="51.31" cy="190.67" rx="4.5" ry="4.42"/>
    <ellipse class="cls-5" cx="51.31" cy="190.35" rx="10.18" ry="10.32"/>
  </g>
</svg>